<mxfile host="app.diagrams.net" agent="Mozilla/5.0 (Windows NT 10.0; Win64; x64) AppleWebKit/537.36 (KHTML, like Gecko) Chrome/131.0.0.0 Safari/537.36" version="26.0.4">
  <diagram name="Page-1" id="qhDCpyiCkHaJVOi39q1q">
    <mxGraphModel dx="819" dy="441" grid="1" gridSize="10" guides="1" tooltips="1" connect="1" arrows="1" fold="1" page="1" pageScale="1" pageWidth="1169" pageHeight="827" math="0" shadow="0">
      <root>
        <mxCell id="0" />
        <mxCell id="1" parent="0" />
        <mxCell id="4DXViHA2RjTxA30QbC8S-190" value="&lt;font style=&quot;font-size: 20px;&quot;&gt;WiFi Functionality&lt;/font&gt;" style="rounded=0;whiteSpace=wrap;html=1;" vertex="1" parent="1">
          <mxGeometry x="205" y="140" width="216" height="50" as="geometry" />
        </mxCell>
        <mxCell id="4DXViHA2RjTxA30QbC8S-192" value="Arduino sends data to ESP" style="rounded=0;whiteSpace=wrap;html=1;container=0;" vertex="1" parent="1">
          <mxGeometry x="105" y="240" width="120" height="40" as="geometry" />
        </mxCell>
        <mxCell id="4DXViHA2RjTxA30QbC8S-221" style="edgeStyle=orthogonalEdgeStyle;rounded=0;orthogonalLoop=1;jettySize=auto;html=1;entryX=0;entryY=0.5;entryDx=0;entryDy=0;exitX=1;exitY=0.5;exitDx=0;exitDy=0;" edge="1" parent="1" source="4DXViHA2RjTxA30QbC8S-192" target="4DXViHA2RjTxA30QbC8S-196">
          <mxGeometry relative="1" as="geometry">
            <mxPoint x="355" y="260.02857142857135" as="sourcePoint" />
          </mxGeometry>
        </mxCell>
        <mxCell id="4DXViHA2RjTxA30QbC8S-223" style="edgeStyle=orthogonalEdgeStyle;rounded=0;orthogonalLoop=1;jettySize=auto;html=1;entryX=0;entryY=0.5;entryDx=0;entryDy=0;" edge="1" parent="1" source="4DXViHA2RjTxA30QbC8S-196" target="4DXViHA2RjTxA30QbC8S-217">
          <mxGeometry relative="1" as="geometry" />
        </mxCell>
        <mxCell id="4DXViHA2RjTxA30QbC8S-196" value="ESP send the data trough Wi-Fi to the computer" style="rounded=0;whiteSpace=wrap;html=1;" vertex="1" parent="1">
          <mxGeometry x="275" y="235" width="100" height="50" as="geometry" />
        </mxCell>
        <mxCell id="4DXViHA2RjTxA30QbC8S-226" style="edgeStyle=orthogonalEdgeStyle;rounded=0;orthogonalLoop=1;jettySize=auto;html=1;entryX=0.5;entryY=0;entryDx=0;entryDy=0;" edge="1" parent="1" source="4DXViHA2RjTxA30QbC8S-217" target="4DXViHA2RjTxA30QbC8S-224">
          <mxGeometry relative="1" as="geometry" />
        </mxCell>
        <mxCell id="4DXViHA2RjTxA30QbC8S-227" style="edgeStyle=orthogonalEdgeStyle;rounded=0;orthogonalLoop=1;jettySize=auto;html=1;entryX=0.5;entryY=0;entryDx=0;entryDy=0;" edge="1" parent="1" source="4DXViHA2RjTxA30QbC8S-217" target="4DXViHA2RjTxA30QbC8S-225">
          <mxGeometry relative="1" as="geometry" />
        </mxCell>
        <mxCell id="4DXViHA2RjTxA30QbC8S-217" value="Computer Receives the data" style="rounded=0;whiteSpace=wrap;html=1;" vertex="1" parent="1">
          <mxGeometry x="425" y="235" width="100" height="50" as="geometry" />
        </mxCell>
        <mxCell id="4DXViHA2RjTxA30QbC8S-224" value="Draws the data on to a Map" style="rounded=0;whiteSpace=wrap;html=1;" vertex="1" parent="1">
          <mxGeometry x="485" y="330" width="100" height="50" as="geometry" />
        </mxCell>
        <mxCell id="4DXViHA2RjTxA30QbC8S-229" style="edgeStyle=orthogonalEdgeStyle;rounded=0;orthogonalLoop=1;jettySize=auto;html=1;entryX=1;entryY=0.5;entryDx=0;entryDy=0;" edge="1" parent="1" source="4DXViHA2RjTxA30QbC8S-225" target="4DXViHA2RjTxA30QbC8S-228">
          <mxGeometry relative="1" as="geometry" />
        </mxCell>
        <mxCell id="4DXViHA2RjTxA30QbC8S-225" value="Decides the Car&#39;s next move" style="rounded=0;whiteSpace=wrap;html=1;" vertex="1" parent="1">
          <mxGeometry x="365" y="330" width="100" height="50" as="geometry" />
        </mxCell>
        <mxCell id="4DXViHA2RjTxA30QbC8S-231" style="edgeStyle=orthogonalEdgeStyle;rounded=0;orthogonalLoop=1;jettySize=auto;html=1;entryX=1;entryY=0.5;entryDx=0;entryDy=0;" edge="1" parent="1" source="4DXViHA2RjTxA30QbC8S-228" target="4DXViHA2RjTxA30QbC8S-230">
          <mxGeometry relative="1" as="geometry">
            <mxPoint x="295" y="355" as="targetPoint" />
          </mxGeometry>
        </mxCell>
        <mxCell id="4DXViHA2RjTxA30QbC8S-228" value="Sends Data to ESP" style="rounded=0;whiteSpace=wrap;html=1;" vertex="1" parent="1">
          <mxGeometry x="245" y="330" width="100" height="50" as="geometry" />
        </mxCell>
        <mxCell id="4DXViHA2RjTxA30QbC8S-230" value="Arduino Reads data and acts acordingly" style="rounded=0;whiteSpace=wrap;html=1;" vertex="1" parent="1">
          <mxGeometry x="100" y="330" width="120" height="50" as="geometry" />
        </mxCell>
        <mxCell id="4DXViHA2RjTxA30QbC8S-232" style="edgeStyle=orthogonalEdgeStyle;rounded=0;orthogonalLoop=1;jettySize=auto;html=1;entryX=0.461;entryY=1.004;entryDx=0;entryDy=0;entryPerimeter=0;" edge="1" parent="1" source="4DXViHA2RjTxA30QbC8S-230" target="4DXViHA2RjTxA30QbC8S-192">
          <mxGeometry relative="1" as="geometry" />
        </mxCell>
      </root>
    </mxGraphModel>
  </diagram>
</mxfile>
